<?xml version="1.0" encoding="UTF-8" standalone="no"?>
<!-- Created with Inkscape (http://www.inkscape.org/) -->

<svg
   version="1.1"
   id="svg2"
   xml:space="preserve"
   width="358.93466"
   height="72.440002"
   viewBox="0 0 358.93466 72.440002"
   xmlns="http://www.w3.org/2000/svg"
   xmlns:svg="http://www.w3.org/2000/svg"><defs
     id="defs6"><clipPath
       clipPathUnits="userSpaceOnUse"
       id="clipPath32"><path
         d="M 0.014999,54.33 H 269.201 V 0 H 0.014999 Z"
         id="path30" /></clipPath></defs><g
     id="g8"
     transform="matrix(1.3333333,0,0,-1.3333333,0,72.44)"><g
       id="g10"
       transform="translate(266.431,3.9752)"><path
         d="m 0,0 h -2.441 l 1.194,3.5318 h 0.027 z m 2.77,-3.8309 -3.36,8.9496 h -1.287 l -3.294,-8.9496 h 1.457 l 0.892,2.6513 H 0.407 L 1.3,-3.8309 Z m -9.398,8.9496 h -1.338 l -1.497,-6.7196 h -0.026 l -1.614,6.7196 h -1.313 l -1.483,-6.9034 h -0.026 l -1.588,6.9034 h -1.365 l 2.323,-8.9496 h 1.299 l 1.51,6.956 h 0.026 l 1.627,-6.956 h 1.26 z M -20.311,0.6571 c 0,-1.9693 -1.142,-3.479 -2.796,-3.479 -1.589,0 -2.823,1.4179 -2.823,3.4659 0,1.9429 1.116,3.4658 2.836,3.4658 1.496,0 2.783,-1.3522 2.783,-3.4527 z m 1.363,0.0262 c 0,2.3106 -1.547,4.5798 -4.225,4.5798 -2.035,0 -4.12,-1.7703 -4.12,-4.6191 0,-2.4287 1.573,-4.6192 4.12,-4.6192 2.534,0 4.225,2.1773 4.225,4.6585 z m -12.599,-4.5142 h 1.258 v 8.9496 h -1.258 z m 1.258,0 z m -4.722,0 v 8.9496 h -1.206 v -5.4199 c 0,-0.4201 0.026,-0.8665 0.039,-1.1421 0,-0.1707 0.014,-0.4858 0.027,-0.6433 l -0.027,-0.0262 -0.157,0.315 c -0.355,0.7089 -0.814,1.4047 -1.3,2.1792 l -2.993,4.7373 h -1.311 v -8.9496 h 1.258 v 5.5907 c 0,0.2888 -0.013,0.5645 -0.026,0.8139 -0.013,0.1838 -0.026,0.5514 -0.026,0.7483 h 0.026 c 0.039,-0.1182 0.42,-0.7614 0.499,-0.8796 0.341,-0.5776 0.787,-1.3259 1.037,-1.7197 l 2.875,-4.5536 z m -9.945,0 v 1.1796 h -4.502 v 2.9548 h 4.305 v 1.1271 h -4.305 v 2.5085 h 4.502 v 1.1796 h -5.76 v -8.9496 z m -8.609,0 v 1.1796 h -5.683 l 5.394,6.6297 v 1.1403 h -6.72 V 3.9391 h 5.014 l -5.329,-6.5904 v -1.1796 z m -9.901,0.6945 v 1.4829 c -0.38,-0.3151 -1.391,-1.129 -2.73,-1.129 -1.548,0 -2.822,1.4572 -2.822,3.3608 0,1.7723 1.182,3.5315 2.993,3.5315 1.26,0 2.113,-0.7352 2.559,-1.129 v 1.4828 c -0.551,0.3277 -1.378,0.7995 -2.598,0.7995 -2.442,0 -4.264,-1.9673 -4.264,-4.6848 0,-2.7175 1.862,-4.5535 4.093,-4.5535 1.312,0 2.271,0.5504 2.769,0.8388 z m -9.253,-0.6945 v 1.1796 h -4.502 v 2.9548 h 4.305 v 1.1271 h -4.305 v 2.5085 h 4.502 v 1.1796 h -5.76 v -8.9496 z m -10.474,0 h 1.258 v 8.9496 h -1.258 z m 1.258,0 z m -5.252,6.5154 c 0,-0.8888 -0.696,-1.4508 -1.93,-1.4508 h -1.76 v 2.7054 h 2.219 c 0.762,0 1.471,-0.4182 1.471,-1.2546 z m 1.35,0.0522 c 0,1.2811 -0.891,2.382 -2.716,2.382 h -3.582 v -8.9496 h 1.258 v 3.885 h 1.904 c 1.812,0 3.136,1.0092 3.136,2.6826 z m -9.147,-6.5676 v 1.1796 h -5.683 l 5.394,6.6297 v 1.1403 h -6.72 V 3.9391 h 5.014 l -5.329,-6.5904 v -1.1796 z m -9.881,0 v 1.1796 h -4.502 v 2.9548 h 4.305 v 1.1271 h -4.305 v 2.5085 h 4.502 v 1.1796 h -5.761 v -8.9496 z m -10.054,2.7161 c 0,-1.3526 -1.483,-1.5365 -2.35,-1.5365 h -1.799 v 2.9548 h 2.298 c 0.893,0 1.851,-0.4202 1.851,-1.4183 z m -0.604,3.9042 c 0,-0.8232 -0.722,-1.3719 -1.641,-1.3719 h -1.904 v 2.5216 h 2.259 c 0.735,0 1.286,-0.4573 1.286,-1.1497 z m 1.968,-3.9699 c 0,0.4597 -0.131,2.0345 -2.217,2.1131 v 0.0262 c 0.341,0.1179 0.63,0.249 0.958,0.5632 0.433,0.4181 0.656,0.9538 0.656,1.5417 0,1.2424 -0.997,2.055 -2.494,2.055 h -3.674 v -8.9496 h 3.412 c 1.746,0 3.359,0.9044 3.359,2.6504 z m -10.098,0.5641 v 5.7351 h -1.259 v -5.5776 c 0,-1.2996 -0.63,-2.363 -2.127,-2.363 -1.484,0 -2.048,1.0634 -2.048,2.363 v 5.5776 h -1.259 v -5.7351 c 0,-2.2186 1.167,-3.3588 3.294,-3.3588 1.589,0 3.399,0.6815 3.399,3.3588 z M -141.24,0 h -2.441 l 1.194,3.5318 h 0.026 z m 2.769,-3.8309 -3.36,8.9496 h -1.286 l -3.294,-8.9496 h 1.457 l 0.892,2.6513 h 3.229 l 0.892,-2.6513 z m -10.5,6.5154 c 0,-0.8888 -0.696,-1.4508 -1.93,-1.4508 h -1.76 v 2.7054 h 2.219 c 0.762,0 1.471,-0.4182 1.471,-1.2546 z m 1.35,0.0522 c 0,1.2811 -0.891,2.382 -2.715,2.382 h -3.583 v -8.9496 h 1.258 v 3.885 h 1.904 c 1.812,0 3.136,1.0092 3.136,2.6826 z m -9.625,-3.3531 v 5.7351 h -1.259 v -5.5776 c 0,-1.2996 -0.63,-2.363 -2.127,-2.363 -1.484,0 -2.048,1.0634 -2.048,2.363 v 5.5776 h -1.258 v -5.7351 c 0,-2.2186 1.166,-3.3588 3.293,-3.3588 1.589,0 3.399,0.6815 3.399,3.3588 z m -10.898,3.327 c 0,-1.1631 -1.09,-1.4637 -2.731,-1.4637 h -0.932 v 2.6922 h 1.969 c 0.473,0 1.694,-0.1176 1.694,-1.2285 z m 1.639,-6.5415 -1.088,2.8871 c -0.42,1.1159 -1.037,1.3387 -1.391,1.4436 V 0.526 c 0.985,0.3408 2.204,0.9038 2.204,2.3545 0,1.2553 -0.852,2.2382 -2.729,2.2382 h -3.557 v -8.9496 h 1.259 v 3.8981 h 1.273 c 1.012,0 1.471,-0.5252 1.813,-1.5231 l 0.813,-2.375 z m -9.786,0 v 4.684 h -3.818 v -1.1796 h 2.534 v -0.3283 c 0,-0.9455 -0.696,-2.0879 -2.022,-2.0879 -1.458,0 -2.666,1.5101 -2.666,3.3337 0,1.7723 1.169,3.5188 3.06,3.5188 1.286,0 2.218,-0.7879 2.65,-1.1556 v 1.4963 c -0.511,0.3015 -1.377,0.8126 -2.69,0.8126 -2.639,0 -4.383,-2.1776 -4.383,-4.7508 0,-2.5984 1.77,-4.4875 3.753,-4.4875 1.26,0 1.943,0.7991 2.298,1.2194 l 0.105,-1.0751 h 1.179"
         style="fill:#7b7979;fill-opacity:1;fill-rule:nonzero;stroke:none"
         id="path12" /></g><g
       id="g14"
       transform="translate(263.046,38.512)"><path
         d="M 0,0 C 0,-2.448 -1.632,-3.876 -4.692,-3.876 H -20.876 V 3.808 H -4.488 C -1.564,3.808 0,2.38 0,0 Z m 4.556,0.068 c 0,4.964 -3.4,7.888 -9.248,7.888 h -20.605 v -28.357 h 4.421 v 12.377 h 16.66 c 5.508,0 8.772,3.604 8.772,8.092 z m -42.61,-11.492 V 7.888 h -4.42 v -18.156 c 0,-5.576 -2.108,-6.937 -9.588,-6.937 -7.48,0 -9.588,1.361 -9.588,6.937 V 7.888 h -4.42 v -19.312 c 0,-7.005 3.944,-9.861 13.94,-9.861 9.86,0 14.076,2.856 14.076,9.861 z m -35.809,-8.977 -13.668,18.225 11.9,10.064 h -5.848 l -15.028,-12.58 v 12.58 h -4.42 v -28.289 h 4.42 v 10.677 l 5.848,4.964 11.832,-15.641 z m -37.196,6.937 -3.536,2.448 c -2.925,-4.148 -6.665,-6.121 -11.765,-6.121 -7.276,0 -12.58,4.693 -12.58,10.881 0,6.188 5.236,10.88 12.58,10.88 4.76,0 8.705,-1.836 11.017,-5.032 l 3.536,2.448 c -3.06,4.216 -8.297,6.664 -14.553,6.664 -10.064,0 -17.136,-6.46 -17.136,-15.028 0,-8.568 7.072,-14.961 17.136,-14.961 6.732,0 12.105,2.788 15.301,7.821 z m -47.465,4.012 h -11.084 l 5.576,10.88 z m 10.404,-10.949 -14.552,28.357 h -2.788 l -14.416,-28.357 h 4.692 l 3.672,7.209 h 14.96 l 3.672,-7.209 z m -42.806,8.773 c 0,-2.924 -1.768,-4.692 -4.896,-4.692 h -14.349 v 9.316 h 14.349 c 3.196,0 4.896,-1.768 4.896,-4.624 z m -2.04,12.104 c 0,-2.176 -1.428,-3.332 -4.284,-3.332 h -12.921 v 6.664 h 12.853 c 2.924,0 4.352,-1.088 4.352,-3.332 z m 6.596,-12.376 c 0,3.196 -1.632,5.78 -4.76,7.548 1.768,1.088 2.72,2.924 2.72,5.236 0,4.556 -2.924,7.004 -8.772,7.004 h -17.409 v -28.289 h 18.293 c 6.392,0 9.928,3.401 9.928,8.501"
         style="fill:#231f20;fill-opacity:1;fill-rule:nonzero;stroke:none"
         id="path16" /></g><g
       id="g18"
       transform="translate(10.303,44.121)"><path
         d="M 23.852,0 H 0 v -23.852 h 23.852 z"
         style="fill:none;stroke:#1c579c;stroke-width:4.73;stroke-linecap:butt;stroke-linejoin:miter;stroke-miterlimit:4;stroke-dasharray:none;stroke-opacity:1"
         id="path20" /><g
         id="g22"><path
           d="M 0,0 Z"
           style="fill:none;stroke:#1c579c;stroke-width:4.73;stroke-linecap:butt;stroke-linejoin:miter;stroke-miterlimit:4;stroke-dasharray:none;stroke-opacity:1"
           id="path24" /></g></g><g
       id="g26"><g
         id="g28"
         clip-path="url(#clipPath32)"><g
           id="g34"
           transform="translate(28.827,51.965)"><path
             d="M 0,0 H -26.462 V -26.462"
             style="fill:none;stroke:#00adef;stroke-width:4.73;stroke-linecap:butt;stroke-linejoin:miter;stroke-miterlimit:4;stroke-dasharray:none;stroke-opacity:1"
             id="path36" /></g></g></g></g></svg>
